{"title":"The Good Dinosaur {2015} CAM XVID MP3-MURD3R","uid":12872085,"size":1250692839,"categoryP":"video","categoryS":"movies","magnet":"?xt=urn:btih:2bb66675fb31c3d1897b43cea4ab585017d09b5e&amp;dn=The+Good+Dinosaur+%7B2015%7D+CAM+XVID+MP3-MURD3R&amp;tr=udp%3A%2F%2Ftracker.leechers-paradise.org%3A6969&amp;tr=udp%3A%2F%2Fzer0day.ch%3A1337&amp;tr=udp%3A%2F%2Fopen.demonii.com%3A1337&amp;tr=udp%3A%2F%2Ftracker.coppersurfer.tk%3A6969&amp;tr=udp%3A%2F%2Fexodus.desync.com%3A6969","seeders":1,"leechers":5,"uploader":"SaM","files":4,"time":1448896252,"description":"\nhttp://www.imdb.com/title/tt1979388/\r\n\r\nV2 ..The Good Dinosaur {2015} CAM XVID MP3-MURD3R\r\n\r\nNFO: NO WATERMARKS ...TWEAKED AUDIO...ECT....:)\r\n\r\nFormat : AVI\r\nFormat/Info : Audio Video Interleave\r\nFile size : 1.16 GiB\r\nDuration : 1h 25mn\r\nOverall bit rate : 1 940 Kbps\r\nWriting library : VirtualDub build 35491/release\r\n\r\nVideo\r\nID : 0\r\nFormat : MPEG-4 Visual\r\nFormat profile : Advanced   \r\nFormat settings, BVOP : 2\r\nFormat settings, QPel : No\r\nFormat settings, GMC : No warppoints\r\nFormat settings, Matrix : Default (H.263)\r\nMuxing mode : Packed bitstream\r\nCodec ID : XVID\r\nCodec ID/Hint : XviD\r\nDuration : 1h 25mn\r\nBit rate : 1 834 Kbps\r\nWidth : 640 pixels\r\nHeight : 340 pixels\r\nDisplay aspect ratio : 1.882\r\nFrame rate : 23.976 fps\r\nColor space : YUV\r\nChroma subsampling : 4:2:0\r\nBit depth : 8 bits\r\nScan type : Progressive\r\nCompression mode : Lossy\r\nBits/(Pixel*Frame) : 0.352\r\nStream size : 1.10 GiB (95%)\r\nWriting library : XviD 67\r\n\r\nAudio : UnKnOwN...TY\r\nID : 1\r\nFormat : MPEG Audio\r\nFormat version : Version 1\r\nFormat profile : Layer 3\r\nCodec ID : 55\r\nCodec ID/Hint : MP3\r\nDuration : 1h 25mn\r\nBit rate mode : Constant\r\nBit rate : 96.0 Kbps\r\nChannel(s) : 2 channels\r\nSampling rate : 32.0 KHz\r\nCompression mode : Lossy\r\nStream size : 59.0 MiB (5%)\r\nAlignment : Aligned on interleaves\r\nInterleave, duration : 36 ms (0.86 video frame)\r\nInterleave, preload duratio : 378 ms\r\nWriting library : LAMELAME_MAJOR_VERSI\r\n \nhttp://extraimago.com/image/pBe","torrent":{"xt":"urn:btih:2bb66675fb31c3d1897b43cea4ab585017d09b5e","amp;dn":"The+Good+Dinosaur+%7B2015%7D+CAM+XVID+MP3-MURD3R","amp;tr":["udp%3A%2F%2Ftracker.leechers-paradise.org%3A6969","udp%3A%2F%2Fzer0day.ch%3A1337","udp%3A%2F%2Fopen.demonii.com%3A1337","udp%3A%2F%2Ftracker.coppersurfer.tk%3A6969","udp%3A%2F%2Fexodus.desync.com%3A6969"],"infoHash":"2bb66675fb31c3d1897b43cea4ab585017d09b5e","infoHashBuffer":{"type":"Buffer","data":[43,182,102,117,251,49,195,209,137,123,67,206,164,171,88,80,23,208,155,94]},"announce":[],"urlList":[]}}